<svg xmlns="http://www.w3.org/2000/svg" viewBox="0 0 183.68 155.72"><defs><style>.cls-1{fill:#ed1c24;}.cls-2{fill:#2e3192;}</style></defs><g id="Layer_2" data-name="Layer 2"><g id="Layer_1-2" data-name="Layer 1"><path class="cls-1" d="M86,142.88c-11.46.33-34.06,1-45.1,1.31.56.12,12.67.32,13.24.34,12.44.52,24.89.47,37.34,1-3.79-.28-4.67-1.39-5.48-2.61"/><path class="cls-1" d="M183.11,35.62a5.47,5.47,0,0,0-5-2.48H148.83a10.72,10.72,0,0,1-.36,3.69H178.1c.9,0,1.6.23,1.81.6a2.17,2.17,0,0,1-.41,1.87L112.56,150.75c-.48.8-1.07,1.28-1.58,1.28s-1.1-.48-1.58-1.28L96.48,129.19c-.86.87-1.79,1.76-2.72,2.62l12.48,20.83a5.19,5.19,0,0,0,9.48,0L182.66,41.19A5.46,5.46,0,0,0,183.11,35.62Z"/><path class="cls-1" d="M73.51,98.14,25.75,99.3l49.16,1.18,10.43,17.44a23.82,23.82,0,0,1,3-2.25L69.78,84.79h.75c2.43,0,4.7-.15,6.64-.2s3.57-.17,4.7-.22l1.79-.13-1.79-.11c-1.13-.05-2.75-.17-4.7-.23-1.29,0-2.72-.09-4.25-.14l-2.39,0c-2.43-.06-5-.07-7.62-.08s-5.18,0-7.61.08l-2.25,0c-1.58,0-3.07.11-4.4.14-1.94.06-3.56.18-4.7.23l-1.78.11,1.78.12c1.14.06,2.76.17,4.7.23s4.22.16,6.65.2,5,.06,7.61.07h2.6l4.62,7.68L0,93.7l71.56,1.21Z"/><path class="cls-1" d="M57.9,65c-1.68.07-3.46,0-5.3,0l-23.41,1L55,67.26l8.72,14.52c1.48,0,2.91,0,4.29,0L57.92,65Z"/><path class="cls-2" d="M105.43,116a58.72,58.72,0,0,0,7-7.1c1.17-1.56,4.75-2.8,6.31-4.37a19.71,19.71,0,0,0,2.75-4.82c-1-.42-2-.85-3-1.34a27.81,27.81,0,0,1-3.19-1.92,30.33,30.33,0,0,0,3.41,1.37c1.09.33,2.18.6,3.29.86a17.82,17.82,0,0,1,1.39-2.42c1.62-2.29,3.75-4.37,4.87-6.85.75-1.66,2-3.85,2.73-5.12a42.26,42.26,0,0,1-9.09-4,42.85,42.85,0,0,0,9.68,3l0,0a37.86,37.86,0,0,0,6.15,1c3.19.25,7.47.86,9.49,2.49-.83,1-3.46,2-6.46,6.72s-7.38,11.25-10.07,14.64a20.89,20.89,0,0,1-1.66,1.82,11.53,11.53,0,0,0,1.17,1.85,9.48,9.48,0,0,0,2,1.8,9.79,9.79,0,0,1-2.43-1.4,11.7,11.7,0,0,1-1.52-1.55l-.05,0s-.56-1.15-2.85.92c-2.57,2.32-5.62,3-5.61,4.42,0,3.1,3.69,4.64,6.23,9a19.31,19.31,0,0,0,7,7.21,13.39,13.39,0,0,0,5.82,1.81c1.68.3,1.76-1.86,1.76-1.86,0-1.71-1.07-2.74-2.23-4.65-1.43-2.37-2.57-4.82-1.88-7.7s.34-4.17-.34-4.42c0,0-.31-2.82,4.45-7s20.92-17.73,22.09-20.73a7.22,7.22,0,0,0-1.24-7.55c-1-1.17-5-3.5-9.12-6a45.52,45.52,0,0,1-6,7.67,44.47,44.47,0,0,0,5.06-8.23c-1.8-1.1-3.6-2.2-5.17-3.24-5.23-3.48-9.34-3.4-10.25-3.86a17.3,17.3,0,0,0-2.59-.22c-2.43,0-4.82.39-7.23.58a31.79,31.79,0,0,1-7.36-.18A29.8,29.8,0,0,1,113.19,65s-1.44,4-.07,7.39,2.54,4.11,2.54,4.11a25.71,25.71,0,0,0-3.52,9.64c-.45,4.23-2.09,10.56-3.46,12.52s-6.84,3.52-9.57,8.08S91.34,119.06,86.47,123A22.48,22.48,0,0,0,87.56,125a27.29,27.29,0,0,0,1.74,2.27,26.74,26.74,0,0,1-2.19-1.91,20.11,20.11,0,0,1-1.67-2c-.45-.16-.86-.62-1.58.07-3.32,3.14-5.23,3-6,4.24-1.8,2.74,2.48,5.16,4.22,9.12,2.09,4.76,2.82,6.63,6.65,8.49a6.68,6.68,0,0,0,1.69.51c2.91.46,4.66-.84,4.76-1.57.39-2.87-2.11-2.28-2.93-4.76s-1.16-3.1.06-7.29c.92-3.13-1-2.29-.19-3.65S102.62,118.42,105.43,116Zm33.23,16.39c-3.91-1.08-7.83-3-10-6.56-.56-.91-.91-2-1.54-2.82a21.28,21.28,0,0,0-2.19-2.37,10.67,10.67,0,0,1-3.09-4.25c.83,1.72,2.37,2.88,3.77,4.11a14.9,14.9,0,0,1,2.16,2.19c.66.87,1,1.93,1.62,2.84C131.47,128.92,135.16,130.8,138.66,132.4ZM92.82,143.89a5.18,5.18,0,0,1-4.75-1,13.94,13.94,0,0,1-3.4-4.64c-.46-.88-.85-1.81-1.32-2.7a18.26,18.26,0,0,0-1.67-2.42,16.71,16.71,0,0,1-2.84-4.25,25.81,25.81,0,0,0,3.31,3.93A15,15,0,0,1,83.91,135c.49.82.89,1.71,1.32,2.57a17.06,17.06,0,0,0,3.14,4.72A5.49,5.49,0,0,0,92.82,143.89Z"/><path class="cls-1" d="M49.67,113.36c-2.05,0-4.24-.06-6.43-.07s-4.37,0-6.42.07-4,.14-5.6.2-3,.18-4,.23l-1.51.11,1.51.12c.95,0,2.32.17,4,.23s3.55.15,5.6.19,4.24.06,6.42.08,4.38,0,6.43-.08,4-.14,5.6-.19,3-.18,4-.23l1.5-.12-1.5-.12c-1,0-2.32-.17-4-.22S51.72,113.4,49.67,113.36Z"/><path class="cls-1" d="M40.74,43.58l9.38,15.63c-3.45,0-7.07,0-10.71.09-4.06,0-8.13.14-11.94.24L22,59.71c-1.75,0-3.4.11-4.92.19l-7.37.34-2.8.17,2.8.17,7.37.34c1.52.08,3.17.14,4.92.19l5.49.17c3.81.09,7.88.19,11.94.24l5.19.06,6.75,0c1.91,0,3.75,0,5.5,0,1.16,0,2.26,0,3.33-.08l1.59-.07c3-.16,5.59-.38,7.37-.63s2.79-.43,2.79-.43-1-.21-2.79-.44-4.32-.46-7.37-.63c-1.52-.07-3.18-.13-4.92-.14-.79,0-1.61,0-2.44,0L42.46,39.3a2.14,2.14,0,0,1-.41-1.87c.21-.37.9-.6,1.81-.6h58a23.28,23.28,0,0,1,.37-3.69H43.86a5.5,5.5,0,0,0-5,2.48,5.48,5.48,0,0,0,.46,5.57l0,.06L0,42.39Z"/><path class="cls-2" d="M124.8,66.32c2.13-.26,4.23-.64,6.35-.92a22.86,22.86,0,0,1,4.82-.1c.68-2.89,3.33-11.6,7.69-16h0a19.88,19.88,0,0,0,4.78-7.5,20,20,0,0,1-3.19,7.91c.37,1.8.7,4.89,3.78,6.17,0,0,7.09,1.87,19-2.34a30.75,30.75,0,0,0,3.86.21c2.24-.12,2.89-.92,4.13-.92s2.26-.12,3.3-.05,1.62-1.27.05-1.46-3.23-.16-3.39-.52,3.66-.91,4.5-1.05.85-1.56-.39-1.36-4.26,1-4.21.77,2.31-1.23,4.14-1.43c1.31-.13,1.1-1.5-.41-1.43a9.71,9.71,0,0,0-4.08,1c-1,.66.58-1.44,2.8-1.89,1.87-.37.78-1.56-.46-1.36s-3.32,1.3-4.17,1.43-2.48.49-2.44,0,1.2-2,1.27-3.23-.85-2-1.76,0-1.58,1.91-2.42,2.82a13,13,0,0,0-1.69,3.51,23.21,23.21,0,0,1-4.76.72c-1.62-.06-3-1-5-1.36a18.72,18.72,0,0,0-3.26-.4,17.94,17.94,0,0,0-.59-4.1c-.52-1.56-1.63-4.3-1.56-5.67s1.79-4,1.12-7.24a8.53,8.53,0,0,0-4-5.84,5.49,5.49,0,0,0-1-.39,2.45,2.45,0,0,0-.12,1.23,11.5,11.5,0,0,0,.69,2.42,14.91,14.91,0,0,1,1.11,4.34A15.34,15.34,0,0,0,147.52,28a8.08,8.08,0,0,1-1-2.5,4.23,4.23,0,0,1,0-1.38h0c.06-.22.13-.45.2-.68v0h0a8.15,8.15,0,0,1,.74-1.92,17.28,17.28,0,0,1-2-1.55,17.6,17.6,0,0,0,3.64,1.38,9.1,9.1,0,0,0,2.36.27,1.57,1.57,0,0,0,1.32-1.42,4.55,4.55,0,0,1,.11-1.53c.13-.2.66,0,.79-.65.07-.38-.46-.65-.46-.65s.58-.07.65-.41-.58-.83-.32-1.62A7.1,7.1,0,0,0,155,15a.73.73,0,0,0,.43-.89,28.07,28.07,0,0,0-1.59-3.34,6.78,6.78,0,0,0,.55-1.8c0-.6,0-3.2-.94-4.47C148.54-2.31,141.11-.2,138.31,3c-4.19,4.82-1.44,10.43-1.51,12.1a19.55,19.55,0,0,1-2.64,4.77,6.9,6.9,0,0,1,2.25,3.57,8.6,8.6,0,0,1-.09,4.9,8.21,8.21,0,0,0-.45-4.67,6.18,6.18,0,0,0-2.36-3v0a13,13,0,0,0-4.61-.52c-5.4.27-7.36,2.74-8.54,2.8a34.12,34.12,0,0,0-7.25.67c-4.15.74-10.39,3.66-13.67,5.9-1.43,1-1.24,8.93-.78,13.1.42,3.89,3.06,12.7,3.19,14.6s-.57,3.79-.59,5.45a58.45,58.45,0,0,0,0,7c.16,1.63,1.31,1.81,1.32.25a24.34,24.34,0,0,1,.43-4.61s.09,2.64.22,4.2a8.48,8.48,0,0,0,.59,2.9c.33.85,1.83.84,1.4-.58a22.31,22.31,0,0,1-.34-5.5,38.49,38.49,0,0,0,1.32,6.6c.46,1.41,2.12,1.15,1.67-.77a19.89,19.89,0,0,1-.68-6c0-.66.21.51,1,2.85a15.73,15.73,0,0,0,1.21,2.82c.37.66,1.89,1.07,1.57-.56-.13-.61-.6-1.31-.92-2.41-.54-1.86-.94-4.23-.63-4.59.73,1.95,1.31,3,2.49,3.16s0-1.7-.2-2.35-.06-2.61-.39-3.26c-.18-.37-1.28-1.48-2.22-2.57a5.08,5.08,0,0,1-1.15-2.22c-.2-1-1.16-6.05-1.38-8.09-.59-5.24,1.3-9.54,1.56-14.17,1.3,0,4.27-.42,7.54-.81,3.1-.37,3.16-.41,3.16-.41a.1.1,0,0,0,0,0,28,28,0,0,0,4.16-1,4.91,4.91,0,0,1,3-.56,3.4,3.4,0,0,1,2.4,2.74,3.37,3.37,0,0,0-1.76-2,2.54,2.54,0,0,0-1.67-.21,6.07,6.07,0,0,0-1.38.67,17.6,17.6,0,0,1-5,1.6c-.12.65-.28,1.48-.44,2.38a15.34,15.34,0,0,0,1,1.56,6.46,6.46,0,0,0,4.74,2,11.76,11.76,0,0,0,9.2-4.63,12.51,12.51,0,0,1-7.94,5.19,8.23,8.23,0,0,1-5.12-.7,6.23,6.23,0,0,1-2.17-1.87c-.28,1.57-.55,3.08-.67,3.9-.33,2.15-.41,4.88-.78,6.06-.74,2.33-2.84,4.72-2.81,7.36,0,1.27.61,1.1.56,2.1,0,.62-.93,0-1.08,1.27-.06.51.36.82.35,1.37s-.87.79-1.06,1.71a2,2,0,0,0,.85,2.32,38.71,38.71,0,0,0,5.1,1.25A23.66,23.66,0,0,0,124.8,66.32Zm15.14-36a11.52,11.52,0,0,0,2.6,3.27,2.31,2.31,0,0,0,1.7.61c.61-.14,1-1,1.2-1.48a23.79,23.79,0,0,0,1.09-3.28,12.93,12.93,0,0,1-.67,3.71,2.93,2.93,0,0,1-1.14,1.61,2.21,2.21,0,0,1-1.91-.1,7,7,0,0,1-2.94-3.28,14.61,14.61,0,0,1-1.3-3.42C139,28.73,139.47,29.52,139.94,30.3Z"/></g></g></svg>